<svg height="48" viewBox="0 0 48 48" width="48" xmlns="http://www.w3.org/2000/svg"><path d="m24 0c13.254834 0 24 10.745166 24 24s-10.745166 24-24 24-24-10.745166-24-24 10.745166-24 24-24zm3 30c-2.4852814 0-4.5 2.0147186-4.5 4.5s2.0147186 4.5 4.5 4.5 4.5-2.0147186 4.5-4.5-2.0147186-4.5-4.5-4.5zm2.25-18h-10.5c-3.7279221 0-6.75 3.0220779-6.75 6.75v5.25c0 4.1421356 3.3578644 7.5 7.5 7.5-1.6568542 0-3-1.3431458-3-3s1.3431458-3 3-3h9.75c3.7279221 0 6.75-3.0220779 6.75-6.75s-3.0220779-6.75-6.75-6.75z" fill="#fff" fill-rule="evenodd"/></svg>